G04 #@! TF.GenerationSoftware,KiCad,Pcbnew,8.0.7*
G04 #@! TF.CreationDate,2025-08-04T05:18:41-04:00*
G04 #@! TF.ProjectId,RP2350_60QFN_minimal,52503233-3530-45f3-9630-51464e5f6d69,REV3*
G04 #@! TF.SameCoordinates,Original*
G04 #@! TF.FileFunction,Paste,Top*
G04 #@! TF.FilePolarity,Positive*
%FSLAX46Y46*%
G04 Gerber Fmt 4.6, Leading zero omitted, Abs format (unit mm)*
G04 Created by KiCad (PCBNEW 8.0.7) date 2025-08-04 05:18:41*
%MOMM*%
%LPD*%
G01*
G04 APERTURE LIST*
G04 Aperture macros list*
%AMRoundRect*
0 Rectangle with rounded corners*
0 $1 Rounding radius*
0 $2 $3 $4 $5 $6 $7 $8 $9 X,Y pos of 4 corners*
0 Add a 4 corners polygon primitive as box body*
4,1,4,$2,$3,$4,$5,$6,$7,$8,$9,$2,$3,0*
0 Add four circle primitives for the rounded corners*
1,1,$1+$1,$2,$3*
1,1,$1+$1,$4,$5*
1,1,$1+$1,$6,$7*
1,1,$1+$1,$8,$9*
0 Add four rect primitives between the rounded corners*
20,1,$1+$1,$2,$3,$4,$5,0*
20,1,$1+$1,$4,$5,$6,$7,0*
20,1,$1+$1,$6,$7,$8,$9,0*
20,1,$1+$1,$8,$9,$2,$3,0*%
%AMFreePoly0*
4,1,18,-0.437500,0.050000,-0.433694,0.069134,-0.422855,0.085355,-0.406634,0.096194,-0.387500,0.100000,0.387500,0.100000,0.437500,0.050000,0.437500,-0.050000,0.433694,-0.069134,0.422855,-0.085355,0.406634,-0.096194,0.387500,-0.100000,-0.387500,-0.100000,-0.406634,-0.096194,-0.422855,-0.085355,-0.433694,-0.069134,-0.437500,-0.050000,-0.437500,0.050000,-0.437500,0.050000,$1*%
%AMFreePoly1*
4,1,18,-0.437500,0.050000,-0.433694,0.069134,-0.422855,0.085355,-0.406634,0.096194,-0.387500,0.100000,0.387500,0.100000,0.406634,0.096194,0.422855,0.085355,0.433694,0.069134,0.437500,0.050000,0.437500,-0.050000,0.387500,-0.100000,-0.387500,-0.100000,-0.406634,-0.096194,-0.422855,-0.085355,-0.433694,-0.069134,-0.437500,-0.050000,-0.437500,0.050000,-0.437500,0.050000,$1*%
%AMFreePoly2*
4,1,18,-0.100000,0.387500,-0.050000,0.437500,0.050000,0.437500,0.069134,0.433694,0.085355,0.422855,0.096194,0.406634,0.100000,0.387500,0.100000,-0.387500,0.096194,-0.406634,0.085355,-0.422855,0.069134,-0.433694,0.050000,-0.437500,-0.050000,-0.437500,-0.069134,-0.433694,-0.085355,-0.422855,-0.096194,-0.406634,-0.100000,-0.387500,-0.100000,0.387500,-0.100000,0.387500,$1*%
%AMFreePoly3*
4,1,18,-0.100000,0.387500,-0.096194,0.406634,-0.085355,0.422855,-0.069134,0.433694,-0.050000,0.437500,0.050000,0.437500,0.100000,0.387500,0.100000,-0.387500,0.096194,-0.406634,0.085355,-0.422855,0.069134,-0.433694,0.050000,-0.437500,-0.050000,-0.437500,-0.069134,-0.433694,-0.085355,-0.422855,-0.096194,-0.406634,-0.100000,-0.387500,-0.100000,0.387500,-0.100000,0.387500,$1*%
%AMFreePoly4*
4,1,18,-0.437500,0.050000,-0.433694,0.069134,-0.422855,0.085355,-0.406634,0.096194,-0.387500,0.100000,0.387500,0.100000,0.406634,0.096194,0.422855,0.085355,0.433694,0.069134,0.437500,0.050000,0.437500,-0.050000,0.433694,-0.069134,0.422855,-0.085355,0.406634,-0.096194,0.387500,-0.100000,-0.387500,-0.100000,-0.437500,-0.050000,-0.437500,0.050000,-0.437500,0.050000,$1*%
%AMFreePoly5*
4,1,18,-0.437500,0.050000,-0.387500,0.100000,0.387500,0.100000,0.406634,0.096194,0.422855,0.085355,0.433694,0.069134,0.437500,0.050000,0.437500,-0.050000,0.433694,-0.069134,0.422855,-0.085355,0.406634,-0.096194,0.387500,-0.100000,-0.387500,-0.100000,-0.406634,-0.096194,-0.422855,-0.085355,-0.433694,-0.069134,-0.437500,-0.050000,-0.437500,0.050000,-0.437500,0.050000,$1*%
%AMFreePoly6*
4,1,18,-0.100000,0.387500,-0.096194,0.406634,-0.085355,0.422855,-0.069134,0.433694,-0.050000,0.437500,0.050000,0.437500,0.069134,0.433694,0.085355,0.422855,0.096194,0.406634,0.100000,0.387500,0.100000,-0.387500,0.050000,-0.437500,-0.050000,-0.437500,-0.069134,-0.433694,-0.085355,-0.422855,-0.096194,-0.406634,-0.100000,-0.387500,-0.100000,0.387500,-0.100000,0.387500,$1*%
%AMFreePoly7*
4,1,18,-0.100000,0.387500,-0.096194,0.406634,-0.085355,0.422855,-0.069134,0.433694,-0.050000,0.437500,0.050000,0.437500,0.069134,0.433694,0.085355,0.422855,0.096194,0.406634,0.100000,0.387500,0.100000,-0.387500,0.096194,-0.406634,0.085355,-0.422855,0.069134,-0.433694,0.050000,-0.437500,-0.050000,-0.437500,-0.100000,-0.387500,-0.100000,0.387500,-0.100000,0.387500,$1*%
G04 Aperture macros list end*
%ADD10R,0.470000X0.530000*%
%ADD11RoundRect,0.062500X0.062500X1.087500X-0.062500X1.087500X-0.062500X-1.087500X0.062500X-1.087500X0*%
%ADD12RoundRect,0.062500X0.062500X0.837500X-0.062500X0.837500X-0.062500X-0.837500X0.062500X-0.837500X0*%
%ADD13RoundRect,0.062500X-0.062500X-0.837500X0.062500X-0.837500X0.062500X0.837500X-0.062500X0.837500X0*%
%ADD14RoundRect,0.062500X-0.062500X-1.087500X0.062500X-1.087500X0.062500X1.087500X-0.062500X1.087500X0*%
%ADD15R,0.530000X0.470000*%
%ADD16RoundRect,0.150000X-0.587500X-0.150000X0.587500X-0.150000X0.587500X0.150000X-0.587500X0.150000X0*%
%ADD17RoundRect,0.040000X0.040000X0.605000X-0.040000X0.605000X-0.040000X-0.605000X0.040000X-0.605000X0*%
%ADD18RoundRect,0.062500X0.387500X0.062500X-0.387500X0.062500X-0.387500X-0.062500X0.387500X-0.062500X0*%
%ADD19RoundRect,0.135000X0.185000X-0.135000X0.185000X0.135000X-0.185000X0.135000X-0.185000X-0.135000X0*%
%ADD20RoundRect,0.100000X-0.100000X-0.400000X0.100000X-0.400000X0.100000X0.400000X-0.100000X0.400000X0*%
%ADD21RoundRect,0.135000X-0.185000X0.135000X-0.185000X-0.135000X0.185000X-0.135000X0.185000X0.135000X0*%
%ADD22R,0.350000X0.375000*%
%ADD23R,0.375000X0.350000*%
%ADD24RoundRect,0.135000X0.135000X0.185000X-0.135000X0.185000X-0.135000X-0.185000X0.135000X-0.185000X0*%
%ADD25RoundRect,0.112500X-0.187500X-0.112500X0.187500X-0.112500X0.187500X0.112500X-0.187500X0.112500X0*%
%ADD26RoundRect,0.150000X0.512500X0.150000X-0.512500X0.150000X-0.512500X-0.150000X0.512500X-0.150000X0*%
%ADD27R,1.400000X1.200000*%
%ADD28R,0.700000X1.700000*%
%ADD29RoundRect,0.150000X-0.150000X0.587500X-0.150000X-0.587500X0.150000X-0.587500X0.150000X0.587500X0*%
%ADD30RoundRect,0.250000X0.350000X0.350000X-0.350000X0.350000X-0.350000X-0.350000X0.350000X-0.350000X0*%
%ADD31FreePoly0,180.000000*%
%ADD32RoundRect,0.050000X0.387500X0.050000X-0.387500X0.050000X-0.387500X-0.050000X0.387500X-0.050000X0*%
%ADD33FreePoly1,180.000000*%
%ADD34FreePoly2,180.000000*%
%ADD35RoundRect,0.050000X0.050000X0.387500X-0.050000X0.387500X-0.050000X-0.387500X0.050000X-0.387500X0*%
%ADD36FreePoly3,180.000000*%
%ADD37FreePoly4,180.000000*%
%ADD38FreePoly5,180.000000*%
%ADD39FreePoly6,180.000000*%
%ADD40FreePoly7,180.000000*%
%ADD41RoundRect,0.135000X-0.135000X-0.185000X0.135000X-0.185000X0.135000X0.185000X-0.135000X0.185000X0*%
G04 APERTURE END LIST*
D10*
X16400000Y-77700000D03*
X17430000Y-77700000D03*
D11*
X19065000Y-84015000D03*
D12*
X19565000Y-83790000D03*
X20065000Y-83790000D03*
D11*
X20565000Y-84015000D03*
D12*
X21065000Y-83790000D03*
X21565000Y-83790000D03*
D13*
X22065000Y-83790000D03*
X22565000Y-83790000D03*
D14*
X23065000Y-84015000D03*
D13*
X23565000Y-83790000D03*
X24065000Y-83790000D03*
D14*
X24565000Y-84015000D03*
D10*
X12555000Y-73375000D03*
X13585000Y-73375000D03*
D15*
X12700000Y-81970000D03*
X12700000Y-83000000D03*
D16*
X18825000Y-76750000D03*
X18825000Y-78650000D03*
X20700000Y-77700000D03*
D17*
X13175000Y-80300000D03*
D18*
X14600000Y-81050000D03*
X14600000Y-80550000D03*
X14600000Y-80050000D03*
X14600000Y-79550000D03*
X11750000Y-79550000D03*
X11750000Y-80050000D03*
X11750000Y-80550000D03*
X11750000Y-81050000D03*
D15*
X10500000Y-81000000D03*
X10500000Y-82030000D03*
X1700000Y-79400000D03*
X1700000Y-80430000D03*
X1600000Y-70100000D03*
X1600000Y-69070000D03*
D19*
X9500000Y-81820000D03*
X9500000Y-80800000D03*
D15*
X6300000Y-84415000D03*
X6300000Y-83385000D03*
D10*
X13200000Y-77400000D03*
X14230000Y-77400000D03*
D19*
X8500000Y-81820000D03*
X8500000Y-80800000D03*
D15*
X2800000Y-79400000D03*
X2800000Y-80430000D03*
X11700000Y-82000000D03*
X11700000Y-83030000D03*
D20*
X16640000Y-46190000D03*
X18140000Y-46190000D03*
D10*
X6515000Y-80175000D03*
X5485000Y-80175000D03*
D20*
X43040000Y-46190000D03*
X44540000Y-46190000D03*
X21440000Y-38990000D03*
X22940000Y-38990000D03*
X7040000Y-36590000D03*
X8540000Y-36590000D03*
X47840000Y-17390000D03*
X49340000Y-17390000D03*
X7040000Y-24590000D03*
X8540000Y-24590000D03*
X28640000Y-41390000D03*
X30140000Y-41390000D03*
X7040000Y-41390000D03*
X8540000Y-41390000D03*
X35840000Y-12590000D03*
X37340000Y-12590000D03*
X26240000Y-31790000D03*
X27740000Y-31790000D03*
X35840000Y-31790000D03*
X37340000Y-31790000D03*
X45440000Y-41390000D03*
X46940000Y-41390000D03*
X4640000Y-22190000D03*
X6140000Y-22190000D03*
X4640000Y-41390000D03*
X6140000Y-41390000D03*
X2240000Y-24590000D03*
X3740000Y-24590000D03*
D15*
X3800000Y-80190000D03*
X3800000Y-79160000D03*
D20*
X35840000Y-7790000D03*
X37340000Y-7790000D03*
X14240000Y-2990000D03*
X15740000Y-2990000D03*
X40640000Y-14990000D03*
X42140000Y-14990000D03*
X26240000Y-50990000D03*
X27740000Y-50990000D03*
X14240000Y-48590000D03*
X15740000Y-48590000D03*
X50240000Y-26990000D03*
X51740000Y-26990000D03*
X28640000Y-26990000D03*
X30140000Y-26990000D03*
X21440000Y-5390000D03*
X22940000Y-5390000D03*
D21*
X13990000Y-61645000D03*
X13990000Y-62665000D03*
D20*
X45440000Y-24590000D03*
X46940000Y-24590000D03*
X14240000Y-19790000D03*
X15740000Y-19790000D03*
X47840000Y-5390000D03*
X49340000Y-5390000D03*
X4640000Y-36590000D03*
X6140000Y-36590000D03*
X2240000Y-34190000D03*
X3740000Y-34190000D03*
X45440000Y-2990000D03*
X46940000Y-2990000D03*
X28640000Y-36590000D03*
X30140000Y-36590000D03*
X40640000Y-24590000D03*
X42140000Y-24590000D03*
D22*
X3206250Y-73125000D03*
X2706250Y-73125000D03*
X2206250Y-73125000D03*
X1706250Y-73125000D03*
D23*
X1693750Y-73637500D03*
X1693750Y-74137500D03*
D22*
X1706250Y-74650000D03*
X2206250Y-74650000D03*
X2706250Y-74650000D03*
X3206250Y-74650000D03*
D23*
X3218750Y-74137500D03*
X3218750Y-73637500D03*
D20*
X40640000Y-22190000D03*
X42140000Y-22190000D03*
X4640000Y-24590000D03*
X6140000Y-24590000D03*
X45440000Y-38990000D03*
X46940000Y-38990000D03*
X45440000Y-46190000D03*
X46940000Y-46190000D03*
X9440000Y-29390000D03*
X10940000Y-29390000D03*
X14240000Y-34190000D03*
X15740000Y-34190000D03*
X7040000Y-19790000D03*
X8540000Y-19790000D03*
X38240000Y-10190000D03*
X39740000Y-10190000D03*
X33440000Y-26990000D03*
X34940000Y-26990000D03*
X31040000Y-31790000D03*
X32540000Y-31790000D03*
D21*
X11615000Y-59695000D03*
X11615000Y-60715000D03*
D20*
X50240000Y-50990000D03*
X51740000Y-50990000D03*
X19040000Y-43790000D03*
X20540000Y-43790000D03*
X23840000Y-24590000D03*
X25340000Y-24590000D03*
X40640000Y-36590000D03*
X42140000Y-36590000D03*
X45440000Y-17390000D03*
X46940000Y-17390000D03*
X38240000Y-12590000D03*
X39740000Y-12590000D03*
X50240000Y-29390000D03*
X51740000Y-29390000D03*
X35840000Y-46190000D03*
X37340000Y-46190000D03*
X40640000Y-10190000D03*
X42140000Y-10190000D03*
X11840000Y-46190000D03*
X13340000Y-46190000D03*
X26240000Y-17390000D03*
X27740000Y-17390000D03*
X28640000Y-2990000D03*
X30140000Y-2990000D03*
X43040000Y-31790000D03*
X44540000Y-31790000D03*
X19040000Y-14990000D03*
X20540000Y-14990000D03*
X47840000Y-41390000D03*
X49340000Y-41390000D03*
X47840000Y-10190000D03*
X49340000Y-10190000D03*
X50240000Y-17390000D03*
X51740000Y-17390000D03*
X47840000Y-2990000D03*
X49340000Y-2990000D03*
X47840000Y-12590000D03*
X49340000Y-12590000D03*
X21440000Y-41390000D03*
X22940000Y-41390000D03*
X45440000Y-14990000D03*
X46940000Y-14990000D03*
X43040000Y-41390000D03*
X44540000Y-41390000D03*
X26240000Y-26990000D03*
X27740000Y-26990000D03*
X50240000Y-19790000D03*
X51740000Y-19790000D03*
X33440000Y-48590000D03*
X34940000Y-48590000D03*
X4640000Y-29390000D03*
X6140000Y-29390000D03*
X19040000Y-26990000D03*
X20540000Y-26990000D03*
X21440000Y-22190000D03*
X22940000Y-22190000D03*
X19040000Y-19790000D03*
X20540000Y-19790000D03*
X16640000Y-5390000D03*
X18140000Y-5390000D03*
X43040000Y-7790000D03*
X44540000Y-7790000D03*
D24*
X4800000Y-54640000D03*
X3780000Y-54640000D03*
D20*
X40640000Y-19790000D03*
X42140000Y-19790000D03*
D21*
X11615000Y-61695000D03*
X11615000Y-62715000D03*
D20*
X4640000Y-17390000D03*
X6140000Y-17390000D03*
X33440000Y-22190000D03*
X34940000Y-22190000D03*
X28640000Y-17390000D03*
X30140000Y-17390000D03*
X33440000Y-14990000D03*
X34940000Y-14990000D03*
X26240000Y-38990000D03*
X27740000Y-38990000D03*
X11840000Y-41390000D03*
X13340000Y-41390000D03*
X38240000Y-7790000D03*
X39740000Y-7790000D03*
X2240000Y-19790000D03*
X3740000Y-19790000D03*
X40640000Y-50990000D03*
X42140000Y-50990000D03*
X9440000Y-34190000D03*
X10940000Y-34190000D03*
X47840000Y-31790000D03*
X49340000Y-31790000D03*
X23840000Y-31790000D03*
X25340000Y-31790000D03*
D21*
X10490000Y-61715000D03*
X10490000Y-62735000D03*
D20*
X11840000Y-19790000D03*
X13340000Y-19790000D03*
X35840000Y-2990000D03*
X37340000Y-2990000D03*
X16640000Y-2990000D03*
X18140000Y-2990000D03*
X21440000Y-29390000D03*
X22940000Y-29390000D03*
X43040000Y-17390000D03*
X44540000Y-17390000D03*
X26240000Y-29390000D03*
X27740000Y-29390000D03*
X2240000Y-12590000D03*
X3740000Y-12590000D03*
X43040000Y-29390000D03*
X44540000Y-29390000D03*
D10*
X1770000Y-75600000D03*
X2800000Y-75600000D03*
D20*
X19040000Y-38990000D03*
X20540000Y-38990000D03*
X50240000Y-14990000D03*
X51740000Y-14990000D03*
X7040000Y-22190000D03*
X8540000Y-22190000D03*
X4640000Y-31790000D03*
X6140000Y-31790000D03*
X38240000Y-36590000D03*
X39740000Y-36590000D03*
X14240000Y-38990000D03*
X15740000Y-38990000D03*
X23840000Y-2990000D03*
X25340000Y-2990000D03*
X45440000Y-31790000D03*
X46940000Y-31790000D03*
X50240000Y-31790000D03*
X51740000Y-31790000D03*
D21*
X10490000Y-59645000D03*
X10490000Y-60665000D03*
D20*
X23840000Y-34190000D03*
X25340000Y-34190000D03*
X33440000Y-50990000D03*
X34940000Y-50990000D03*
X28640000Y-29390000D03*
X30140000Y-29390000D03*
X19040000Y-36590000D03*
X20540000Y-36590000D03*
X21440000Y-14990000D03*
X22940000Y-14990000D03*
X21440000Y-46190000D03*
X22940000Y-46190000D03*
X26240000Y-5390000D03*
X27740000Y-5390000D03*
X2240000Y-38990000D03*
X3740000Y-38990000D03*
X38240000Y-31790000D03*
X39740000Y-31790000D03*
X28640000Y-50990000D03*
X30140000Y-50990000D03*
X16640000Y-7790000D03*
X18140000Y-7790000D03*
X28640000Y-14990000D03*
X30140000Y-14990000D03*
D24*
X4815000Y-55765000D03*
X3795000Y-55765000D03*
D20*
X47840000Y-7790000D03*
X49340000Y-7790000D03*
X47840000Y-34190000D03*
X49340000Y-34190000D03*
X33440000Y-5390000D03*
X34940000Y-5390000D03*
X45440000Y-10190000D03*
X46940000Y-10190000D03*
X23840000Y-41390000D03*
X25340000Y-41390000D03*
X9440000Y-31790000D03*
X10940000Y-31790000D03*
D21*
X12815000Y-59695000D03*
X12815000Y-60715000D03*
D20*
X9440000Y-48590000D03*
X10940000Y-48590000D03*
X33440000Y-41390000D03*
X34940000Y-41390000D03*
D19*
X5300000Y-84410000D03*
X5300000Y-83390000D03*
D25*
X23430000Y-79640000D03*
X25530000Y-79640000D03*
D20*
X47840000Y-29390000D03*
X49340000Y-29390000D03*
D21*
X16340000Y-59665000D03*
X16340000Y-60685000D03*
D20*
X33440000Y-46190000D03*
X34940000Y-46190000D03*
X33440000Y-38990000D03*
X34940000Y-38990000D03*
X31040000Y-19790000D03*
X32540000Y-19790000D03*
X50240000Y-46190000D03*
X51740000Y-46190000D03*
X50240000Y-10190000D03*
X51740000Y-10190000D03*
D26*
X18900000Y-70750000D03*
X18900000Y-69800000D03*
X18900000Y-68850000D03*
X16625000Y-68850000D03*
X16625000Y-69800000D03*
X16625000Y-70750000D03*
D20*
X7040000Y-17390000D03*
X8540000Y-17390000D03*
X43040000Y-2990000D03*
X44540000Y-2990000D03*
X2240000Y-10190000D03*
X3740000Y-10190000D03*
X19040000Y-50990000D03*
X20540000Y-50990000D03*
X16640000Y-17390000D03*
X18140000Y-17390000D03*
D24*
X19200000Y-72000000D03*
X18180000Y-72000000D03*
D20*
X2240000Y-17390000D03*
X3740000Y-17390000D03*
X31040000Y-29390000D03*
X32540000Y-29390000D03*
X35840000Y-10190000D03*
X37340000Y-10190000D03*
X35840000Y-48590000D03*
X37340000Y-48590000D03*
X4640000Y-7790000D03*
X6140000Y-7790000D03*
D27*
X7345000Y-62300000D03*
X5145000Y-62300000D03*
X5145000Y-64000000D03*
X7345000Y-64000000D03*
D20*
X40640000Y-48590000D03*
X42140000Y-48590000D03*
X2240000Y-14990000D03*
X3740000Y-14990000D03*
X28640000Y-34190000D03*
X30140000Y-34190000D03*
X21440000Y-7790000D03*
X22940000Y-7790000D03*
X31040000Y-10190000D03*
X32540000Y-10190000D03*
D24*
X2100000Y-72100000D03*
X1080000Y-72100000D03*
D20*
X43040000Y-14990000D03*
X44540000Y-14990000D03*
X11840000Y-34190000D03*
X13340000Y-34190000D03*
X26240000Y-43790000D03*
X27740000Y-43790000D03*
X45440000Y-12590000D03*
X46940000Y-12590000D03*
X40640000Y-17390000D03*
X42140000Y-17390000D03*
X35840000Y-29390000D03*
X37340000Y-29390000D03*
X45440000Y-26990000D03*
X46940000Y-26990000D03*
X21440000Y-19790000D03*
X22940000Y-19790000D03*
X47840000Y-24590000D03*
X49340000Y-24590000D03*
X38240000Y-43790000D03*
X39740000Y-43790000D03*
D24*
X6810000Y-55765000D03*
X5790000Y-55765000D03*
D20*
X2240000Y-7790000D03*
X3740000Y-7790000D03*
X38240000Y-50990000D03*
X39740000Y-50990000D03*
X16640000Y-41390000D03*
X18140000Y-41390000D03*
X26240000Y-34190000D03*
X27740000Y-34190000D03*
X40640000Y-7790000D03*
X42140000Y-7790000D03*
X35840000Y-17390000D03*
X37340000Y-17390000D03*
X47840000Y-36590000D03*
X49340000Y-36590000D03*
X47840000Y-46190000D03*
X49340000Y-46190000D03*
X47840000Y-50990000D03*
X49340000Y-50990000D03*
X7040000Y-34190000D03*
X8540000Y-34190000D03*
X4640000Y-46190000D03*
X6140000Y-46190000D03*
X26240000Y-10190000D03*
X27740000Y-10190000D03*
X7040000Y-43790000D03*
X8540000Y-43790000D03*
X7040000Y-14990000D03*
X8540000Y-14990000D03*
X45440000Y-43790000D03*
X46940000Y-43790000D03*
X45440000Y-7790000D03*
X46940000Y-7790000D03*
X4640000Y-2990000D03*
X6140000Y-2990000D03*
X16640000Y-26990000D03*
X18140000Y-26990000D03*
X28640000Y-43790000D03*
X30140000Y-43790000D03*
X35840000Y-38990000D03*
X37340000Y-38990000D03*
X40640000Y-12590000D03*
X42140000Y-12590000D03*
X19040000Y-22190000D03*
X20540000Y-22190000D03*
X23840000Y-12590000D03*
X25340000Y-12590000D03*
X26240000Y-48590000D03*
X27740000Y-48590000D03*
X19040000Y-12590000D03*
X20540000Y-12590000D03*
X19040000Y-34190000D03*
X20540000Y-34190000D03*
X31040000Y-7790000D03*
X32540000Y-7790000D03*
X2240000Y-2990000D03*
X3740000Y-2990000D03*
X11840000Y-31790000D03*
X13340000Y-31790000D03*
X38240000Y-5390000D03*
X39740000Y-5390000D03*
X11840000Y-38990000D03*
X13340000Y-38990000D03*
X11840000Y-43790000D03*
X13340000Y-43790000D03*
D28*
X6700000Y-81825000D03*
X5300000Y-81825000D03*
D21*
X13940000Y-59670000D03*
X13940000Y-60690000D03*
D20*
X14240000Y-17390000D03*
X15740000Y-17390000D03*
X23840000Y-43790000D03*
X25340000Y-43790000D03*
X14240000Y-50990000D03*
X15740000Y-50990000D03*
X28640000Y-12590000D03*
X30140000Y-12590000D03*
X31040000Y-50990000D03*
X32540000Y-50990000D03*
X14240000Y-24590000D03*
X15740000Y-24590000D03*
X4640000Y-10190000D03*
X6140000Y-10190000D03*
X4640000Y-48590000D03*
X6140000Y-48590000D03*
D24*
X4835000Y-56965000D03*
X3815000Y-56965000D03*
D20*
X38240000Y-2990000D03*
X39740000Y-2990000D03*
X43040000Y-50990000D03*
X44540000Y-50990000D03*
X50240000Y-2990000D03*
X51740000Y-2990000D03*
X38240000Y-38990000D03*
X39740000Y-38990000D03*
X40640000Y-29390000D03*
X42140000Y-29390000D03*
X21440000Y-34190000D03*
X22940000Y-34190000D03*
X28640000Y-46190000D03*
X30140000Y-46190000D03*
X45440000Y-48590000D03*
X46940000Y-48590000D03*
X50240000Y-36590000D03*
X51740000Y-36590000D03*
X38240000Y-26990000D03*
X39740000Y-26990000D03*
X2240000Y-46190000D03*
X3740000Y-46190000D03*
X23840000Y-38990000D03*
X25340000Y-38990000D03*
D15*
X14700000Y-68300000D03*
X14700000Y-67270000D03*
D24*
X7800000Y-68100000D03*
X6780000Y-68100000D03*
D20*
X11840000Y-5390000D03*
X13340000Y-5390000D03*
X28640000Y-19790000D03*
X30140000Y-19790000D03*
X43040000Y-36590000D03*
X44540000Y-36590000D03*
X50240000Y-12590000D03*
X51740000Y-12590000D03*
X45440000Y-29390000D03*
X46940000Y-29390000D03*
X23840000Y-29390000D03*
X25340000Y-29390000D03*
X14240000Y-31790000D03*
X15740000Y-31790000D03*
X16640000Y-43790000D03*
X18140000Y-43790000D03*
X7040000Y-26990000D03*
X8540000Y-26990000D03*
X31040000Y-17390000D03*
X32540000Y-17390000D03*
X40640000Y-38990000D03*
X42140000Y-38990000D03*
D21*
X15165000Y-61695000D03*
X15165000Y-62715000D03*
D20*
X31040000Y-12590000D03*
X32540000Y-12590000D03*
X28640000Y-5390000D03*
X30140000Y-5390000D03*
X11840000Y-14990000D03*
X13340000Y-14990000D03*
X7040000Y-38990000D03*
X8540000Y-38990000D03*
X33440000Y-24590000D03*
X34940000Y-24590000D03*
X11840000Y-50990000D03*
X13340000Y-50990000D03*
X33440000Y-43790000D03*
X34940000Y-43790000D03*
X47840000Y-48590000D03*
X49340000Y-48590000D03*
X7040000Y-5390000D03*
X8540000Y-5390000D03*
X21440000Y-24590000D03*
X22940000Y-24590000D03*
X31040000Y-46190000D03*
X32540000Y-46190000D03*
X11840000Y-22190000D03*
X13340000Y-22190000D03*
X16640000Y-48590000D03*
X18140000Y-48590000D03*
X14240000Y-5390000D03*
X15740000Y-5390000D03*
X43040000Y-48590000D03*
X44540000Y-48590000D03*
X26240000Y-12590000D03*
X27740000Y-12590000D03*
X23840000Y-22190000D03*
X25340000Y-22190000D03*
X47840000Y-22190000D03*
X49340000Y-22190000D03*
X19040000Y-17390000D03*
X20540000Y-17390000D03*
X21440000Y-2990000D03*
X22940000Y-2990000D03*
X40640000Y-26990000D03*
X42140000Y-26990000D03*
X7040000Y-48590000D03*
X8540000Y-48590000D03*
X38240000Y-29390000D03*
X39740000Y-29390000D03*
X28640000Y-24590000D03*
X30140000Y-24590000D03*
X7040000Y-46190000D03*
X8540000Y-46190000D03*
X19040000Y-7790000D03*
X20540000Y-7790000D03*
X11840000Y-12590000D03*
X13340000Y-12590000D03*
D29*
X20710000Y-58425000D03*
X18810000Y-58425000D03*
X19760000Y-60300000D03*
D20*
X26240000Y-22190000D03*
X27740000Y-22190000D03*
X50240000Y-48590000D03*
X51740000Y-48590000D03*
D21*
X15165000Y-59670000D03*
X15165000Y-60690000D03*
D20*
X43040000Y-38990000D03*
X44540000Y-38990000D03*
X2240000Y-29390000D03*
X3740000Y-29390000D03*
X2240000Y-22190000D03*
X3740000Y-22190000D03*
X16640000Y-10190000D03*
X18140000Y-10190000D03*
X9440000Y-46190000D03*
X10940000Y-46190000D03*
X45440000Y-19790000D03*
X46940000Y-19790000D03*
D10*
X5815000Y-68100000D03*
X4785000Y-68100000D03*
D20*
X40640000Y-34190000D03*
X42140000Y-34190000D03*
X31040000Y-43790000D03*
X32540000Y-43790000D03*
X11840000Y-48590000D03*
X13340000Y-48590000D03*
X31040000Y-24590000D03*
X32540000Y-24590000D03*
X2240000Y-43790000D03*
X3740000Y-43790000D03*
D24*
X6810000Y-56990000D03*
X5790000Y-56990000D03*
D20*
X4640000Y-19790000D03*
X6140000Y-19790000D03*
X31040000Y-34190000D03*
X32540000Y-34190000D03*
X14240000Y-7790000D03*
X15740000Y-7790000D03*
X11840000Y-7790000D03*
X13340000Y-7790000D03*
X35840000Y-19790000D03*
X37340000Y-19790000D03*
X35840000Y-24590000D03*
X37340000Y-24590000D03*
X43040000Y-22190000D03*
X44540000Y-22190000D03*
X14240000Y-10190000D03*
X15740000Y-10190000D03*
X50240000Y-24590000D03*
X51740000Y-24590000D03*
X16640000Y-38990000D03*
X18140000Y-38990000D03*
X23840000Y-17390000D03*
X25340000Y-17390000D03*
D24*
X8710000Y-83000000D03*
X7690000Y-83000000D03*
D20*
X7040000Y-12590000D03*
X8540000Y-12590000D03*
X40640000Y-46190000D03*
X42140000Y-46190000D03*
X11840000Y-26990000D03*
X13340000Y-26990000D03*
X31040000Y-38990000D03*
X32540000Y-38990000D03*
D21*
X1100000Y-76580000D03*
X1100000Y-77600000D03*
D20*
X4640000Y-5390000D03*
X6140000Y-5390000D03*
X21440000Y-10190000D03*
X22940000Y-10190000D03*
X45440000Y-36590000D03*
X46940000Y-36590000D03*
X26240000Y-41390000D03*
X27740000Y-41390000D03*
X47840000Y-19790000D03*
X49340000Y-19790000D03*
X33440000Y-34190000D03*
X34940000Y-34190000D03*
X4640000Y-43790000D03*
X6140000Y-43790000D03*
X11840000Y-24590000D03*
X13340000Y-24590000D03*
X4640000Y-26990000D03*
X6140000Y-26990000D03*
X9440000Y-10190000D03*
X10940000Y-10190000D03*
X2240000Y-31790000D03*
X3740000Y-31790000D03*
X16640000Y-14990000D03*
X18140000Y-14990000D03*
X2240000Y-50990000D03*
X3740000Y-50990000D03*
D16*
X16162500Y-65300000D03*
X16162500Y-67200000D03*
X18037500Y-66250000D03*
D20*
X16640000Y-12590000D03*
X18140000Y-12590000D03*
X47840000Y-38990000D03*
X49340000Y-38990000D03*
X43040000Y-12590000D03*
X44540000Y-12590000D03*
D10*
X7130000Y-66550000D03*
X8160000Y-66550000D03*
D20*
X7040000Y-10190000D03*
X8540000Y-10190000D03*
X21440000Y-43790000D03*
X22940000Y-43790000D03*
X31040000Y-5390000D03*
X32540000Y-5390000D03*
X50240000Y-5390000D03*
X51740000Y-5390000D03*
X31040000Y-2990000D03*
X32540000Y-2990000D03*
X43040000Y-10190000D03*
X44540000Y-10190000D03*
X45440000Y-50990000D03*
X46940000Y-50990000D03*
X28640000Y-38990000D03*
X30140000Y-38990000D03*
X23840000Y-5390000D03*
X25340000Y-5390000D03*
X23840000Y-19790000D03*
X25340000Y-19790000D03*
X47840000Y-43790000D03*
X49340000Y-43790000D03*
X33440000Y-2990000D03*
X34940000Y-2990000D03*
X16640000Y-29390000D03*
X18140000Y-29390000D03*
X23840000Y-14990000D03*
X25340000Y-14990000D03*
X19040000Y-2990000D03*
X20540000Y-2990000D03*
X9440000Y-36590000D03*
X10940000Y-36590000D03*
X19040000Y-5390000D03*
X20540000Y-5390000D03*
X14240000Y-29390000D03*
X15740000Y-29390000D03*
D24*
X4815000Y-58140000D03*
X3795000Y-58140000D03*
D20*
X28640000Y-10190000D03*
X30140000Y-10190000D03*
X26240000Y-14990000D03*
X27740000Y-14990000D03*
X38240000Y-34190000D03*
X39740000Y-34190000D03*
X21440000Y-17390000D03*
X22940000Y-17390000D03*
X33440000Y-7790000D03*
X34940000Y-7790000D03*
X19040000Y-31790000D03*
X20540000Y-31790000D03*
X16640000Y-31790000D03*
X18140000Y-31790000D03*
X7040000Y-7790000D03*
X8540000Y-7790000D03*
D30*
X8700000Y-75325000D03*
X8700000Y-73925000D03*
X7300000Y-75325000D03*
X7300000Y-73925000D03*
D31*
X11437500Y-77425000D03*
D32*
X11437500Y-77025000D03*
X11437500Y-76625000D03*
X11437500Y-76225000D03*
X11437500Y-75825000D03*
X11437500Y-75425000D03*
X11437500Y-75025000D03*
X11437500Y-74625000D03*
X11437500Y-74225000D03*
X11437500Y-73825000D03*
X11437500Y-73425000D03*
X11437500Y-73025000D03*
X11437500Y-72625000D03*
X11437500Y-72225000D03*
D33*
X11437500Y-71825000D03*
D34*
X10800000Y-71187500D03*
D35*
X10400000Y-71187500D03*
X10000000Y-71187500D03*
X9600000Y-71187500D03*
X9200000Y-71187500D03*
X8800000Y-71187500D03*
X8400000Y-71187500D03*
X8000000Y-71187500D03*
X7600000Y-71187500D03*
X7200000Y-71187500D03*
X6800000Y-71187500D03*
X6400000Y-71187500D03*
X6000000Y-71187500D03*
X5600000Y-71187500D03*
D36*
X5200000Y-71187500D03*
D37*
X4562500Y-71825000D03*
D32*
X4562500Y-72225000D03*
X4562500Y-72625000D03*
X4562500Y-73025000D03*
X4562500Y-73425000D03*
X4562500Y-73825000D03*
X4562500Y-74225000D03*
X4562500Y-74625000D03*
X4562500Y-75025000D03*
X4562500Y-75425000D03*
X4562500Y-75825000D03*
X4562500Y-76225000D03*
X4562500Y-76625000D03*
X4562500Y-77025000D03*
D38*
X4562500Y-77425000D03*
D39*
X5200000Y-78062500D03*
D35*
X5600000Y-78062500D03*
X6000000Y-78062500D03*
X6400000Y-78062500D03*
X6800000Y-78062500D03*
X7200000Y-78062500D03*
X7600000Y-78062500D03*
X8000000Y-78062500D03*
X8400000Y-78062500D03*
X8800000Y-78062500D03*
X9200000Y-78062500D03*
X9600000Y-78062500D03*
X10000000Y-78062500D03*
X10400000Y-78062500D03*
D40*
X10800000Y-78062500D03*
D20*
X50240000Y-41390000D03*
X51740000Y-41390000D03*
X14240000Y-14990000D03*
X15740000Y-14990000D03*
X19040000Y-46190000D03*
X20540000Y-46190000D03*
X14240000Y-36590000D03*
X15740000Y-36590000D03*
X40640000Y-5390000D03*
X42140000Y-5390000D03*
X16640000Y-36590000D03*
X18140000Y-36590000D03*
X33440000Y-29390000D03*
X34940000Y-29390000D03*
X21440000Y-48590000D03*
X22940000Y-48590000D03*
X28640000Y-31790000D03*
X30140000Y-31790000D03*
X16640000Y-24590000D03*
X18140000Y-24590000D03*
X7040000Y-2990000D03*
X8540000Y-2990000D03*
X35840000Y-43790000D03*
X37340000Y-43790000D03*
D10*
X13100000Y-75400000D03*
X14130000Y-75400000D03*
D20*
X26240000Y-46190000D03*
X27740000Y-46190000D03*
X31040000Y-22190000D03*
X32540000Y-22190000D03*
X23840000Y-26990000D03*
X25340000Y-26990000D03*
X11840000Y-2990000D03*
X13340000Y-2990000D03*
X14240000Y-12590000D03*
X15740000Y-12590000D03*
X38240000Y-14990000D03*
X39740000Y-14990000D03*
X11840000Y-10190000D03*
X13340000Y-10190000D03*
X7040000Y-31790000D03*
X8540000Y-31790000D03*
X9440000Y-43790000D03*
X10940000Y-43790000D03*
X28640000Y-7790000D03*
X30140000Y-7790000D03*
X4640000Y-34190000D03*
X6140000Y-34190000D03*
X2240000Y-5390000D03*
X3740000Y-5390000D03*
X11840000Y-17390000D03*
X13340000Y-17390000D03*
D21*
X13700000Y-81990000D03*
X13700000Y-83010000D03*
D20*
X50240000Y-38990000D03*
X51740000Y-38990000D03*
X23840000Y-48590000D03*
X25340000Y-48590000D03*
X16640000Y-50990000D03*
X18140000Y-50990000D03*
X21440000Y-50990000D03*
X22940000Y-50990000D03*
X33440000Y-31790000D03*
X34940000Y-31790000D03*
X23840000Y-50990000D03*
X25340000Y-50990000D03*
X38240000Y-22190000D03*
X39740000Y-22190000D03*
X43040000Y-34190000D03*
X44540000Y-34190000D03*
X50240000Y-34190000D03*
X51740000Y-34190000D03*
X14240000Y-43790000D03*
X15740000Y-43790000D03*
X7040000Y-29390000D03*
X8540000Y-29390000D03*
D26*
X19637500Y-75150000D03*
X19637500Y-74200000D03*
X19637500Y-73250000D03*
X17362500Y-73250000D03*
X17362500Y-74200000D03*
X17362500Y-75150000D03*
D20*
X23840000Y-46190000D03*
X25340000Y-46190000D03*
X31040000Y-36590000D03*
X32540000Y-36590000D03*
X21440000Y-31790000D03*
X22940000Y-31790000D03*
X50240000Y-43790000D03*
X51740000Y-43790000D03*
D15*
X8850000Y-69345000D03*
X8850000Y-68315000D03*
D20*
X9440000Y-14990000D03*
X10940000Y-14990000D03*
X45440000Y-22190000D03*
X46940000Y-22190000D03*
X40640000Y-2990000D03*
X42140000Y-2990000D03*
X38240000Y-17390000D03*
X39740000Y-17390000D03*
X35840000Y-34190000D03*
X37340000Y-34190000D03*
X33440000Y-19790000D03*
X34940000Y-19790000D03*
X26240000Y-2990000D03*
X27740000Y-2990000D03*
X38240000Y-19790000D03*
X39740000Y-19790000D03*
D15*
X22270000Y-77440000D03*
X22270000Y-78470000D03*
D20*
X9440000Y-19790000D03*
X10940000Y-19790000D03*
X9440000Y-17390000D03*
X10940000Y-17390000D03*
D21*
X19400000Y-62990000D03*
X19400000Y-64010000D03*
D20*
X26240000Y-7790000D03*
X27740000Y-7790000D03*
X35840000Y-50990000D03*
X37340000Y-50990000D03*
X4640000Y-38990000D03*
X6140000Y-38990000D03*
X21440000Y-26990000D03*
X22940000Y-26990000D03*
X26240000Y-24590000D03*
X27740000Y-24590000D03*
D21*
X17515000Y-59670000D03*
X17515000Y-60690000D03*
D20*
X43040000Y-19790000D03*
X44540000Y-19790000D03*
X2240000Y-26990000D03*
X3740000Y-26990000D03*
X4640000Y-14990000D03*
X6140000Y-14990000D03*
X45440000Y-5390000D03*
X46940000Y-5390000D03*
X31040000Y-48590000D03*
X32540000Y-48590000D03*
X9440000Y-24590000D03*
X10940000Y-24590000D03*
X35840000Y-22190000D03*
X37340000Y-22190000D03*
X26240000Y-19790000D03*
X27740000Y-19790000D03*
D15*
X2100000Y-76500000D03*
X2100000Y-77530000D03*
D20*
X47840000Y-14990000D03*
X49340000Y-14990000D03*
X19040000Y-29390000D03*
X20540000Y-29390000D03*
X43040000Y-43790000D03*
X44540000Y-43790000D03*
X43040000Y-26990000D03*
X44540000Y-26990000D03*
X50240000Y-7790000D03*
X51740000Y-7790000D03*
X9440000Y-38990000D03*
X10940000Y-38990000D03*
D24*
X17400000Y-79000000D03*
X16380000Y-79000000D03*
D20*
X9440000Y-5390000D03*
X10940000Y-5390000D03*
X31040000Y-41390000D03*
X32540000Y-41390000D03*
X9440000Y-7790000D03*
X10940000Y-7790000D03*
X40640000Y-41390000D03*
X42140000Y-41390000D03*
X40640000Y-31790000D03*
X42140000Y-31790000D03*
D10*
X6515000Y-79225000D03*
X5485000Y-79225000D03*
D20*
X14240000Y-41390000D03*
X15740000Y-41390000D03*
X33440000Y-10190000D03*
X34940000Y-10190000D03*
X4640000Y-12590000D03*
X6140000Y-12590000D03*
X43040000Y-5390000D03*
X44540000Y-5390000D03*
X9440000Y-41390000D03*
X10940000Y-41390000D03*
X33440000Y-12590000D03*
X34940000Y-12590000D03*
X7040000Y-50990000D03*
X8540000Y-50990000D03*
X4640000Y-50990000D03*
X6140000Y-50990000D03*
X9440000Y-50990000D03*
X10940000Y-50990000D03*
X19040000Y-41390000D03*
X20540000Y-41390000D03*
D21*
X17515000Y-61690000D03*
X17515000Y-62710000D03*
D20*
X38240000Y-46190000D03*
X39740000Y-46190000D03*
X9440000Y-26990000D03*
X10940000Y-26990000D03*
D24*
X6810000Y-58140000D03*
X5790000Y-58140000D03*
D20*
X47840000Y-26990000D03*
X49340000Y-26990000D03*
X38240000Y-41390000D03*
X39740000Y-41390000D03*
X31040000Y-14990000D03*
X32540000Y-14990000D03*
X35840000Y-14990000D03*
X37340000Y-14990000D03*
X2240000Y-48590000D03*
X3740000Y-48590000D03*
D24*
X6815000Y-54640000D03*
X5795000Y-54640000D03*
D20*
X40640000Y-43790000D03*
X42140000Y-43790000D03*
X21440000Y-12590000D03*
X22940000Y-12590000D03*
D21*
X12815000Y-61715000D03*
X12815000Y-62735000D03*
D20*
X19040000Y-48590000D03*
X20540000Y-48590000D03*
X35840000Y-36590000D03*
X37340000Y-36590000D03*
X9440000Y-12590000D03*
X10940000Y-12590000D03*
X28640000Y-48590000D03*
X30140000Y-48590000D03*
X16640000Y-22190000D03*
X18140000Y-22190000D03*
X33440000Y-17390000D03*
X34940000Y-17390000D03*
D21*
X16315000Y-61690000D03*
X16315000Y-62710000D03*
D15*
X3100000Y-76570000D03*
X3100000Y-77600000D03*
D20*
X38240000Y-24590000D03*
X39740000Y-24590000D03*
X23840000Y-36590000D03*
X25340000Y-36590000D03*
X9440000Y-22190000D03*
X10940000Y-22190000D03*
X14240000Y-46190000D03*
X15740000Y-46190000D03*
X9440000Y-2990000D03*
X10940000Y-2990000D03*
X14240000Y-22190000D03*
X15740000Y-22190000D03*
X33440000Y-36590000D03*
X34940000Y-36590000D03*
X11840000Y-29390000D03*
X13340000Y-29390000D03*
X31040000Y-26990000D03*
X32540000Y-26990000D03*
X50240000Y-22190000D03*
X51740000Y-22190000D03*
X26240000Y-36590000D03*
X27740000Y-36590000D03*
X45440000Y-34190000D03*
X46940000Y-34190000D03*
X16640000Y-19790000D03*
X18140000Y-19790000D03*
X23840000Y-10190000D03*
X25340000Y-10190000D03*
X16640000Y-34190000D03*
X18140000Y-34190000D03*
X43040000Y-24590000D03*
X44540000Y-24590000D03*
X2240000Y-36590000D03*
X3740000Y-36590000D03*
D15*
X700000Y-80415000D03*
X700000Y-79385000D03*
D20*
X11840000Y-36590000D03*
X13340000Y-36590000D03*
X14240000Y-26990000D03*
X15740000Y-26990000D03*
X35840000Y-41390000D03*
X37340000Y-41390000D03*
X35840000Y-5390000D03*
X37340000Y-5390000D03*
X38240000Y-48590000D03*
X39740000Y-48590000D03*
X23840000Y-7790000D03*
X25340000Y-7790000D03*
D41*
X16380000Y-76700000D03*
X17400000Y-76700000D03*
D20*
X19040000Y-24590000D03*
X20540000Y-24590000D03*
X2240000Y-41390000D03*
X3740000Y-41390000D03*
D10*
X5180000Y-66550000D03*
X4150000Y-66550000D03*
D20*
X19040000Y-10190000D03*
X20540000Y-10190000D03*
X28640000Y-22190000D03*
X30140000Y-22190000D03*
X21440000Y-36590000D03*
X22940000Y-36590000D03*
X35840000Y-26990000D03*
X37340000Y-26990000D03*
M02*
