G04 #@! TF.GenerationSoftware,KiCad,Pcbnew,8.0.7*
G04 #@! TF.CreationDate,2025-08-04T05:18:41-04:00*
G04 #@! TF.ProjectId,RP2350_60QFN_minimal,52503233-3530-45f3-9630-51464e5f6d69,REV3*
G04 #@! TF.SameCoordinates,Original*
G04 #@! TF.FileFunction,Profile,NP*
%FSLAX46Y46*%
G04 Gerber Fmt 4.6, Leading zero omitted, Abs format (unit mm)*
G04 Created by KiCad (PCBNEW 8.0.7) date 2025-08-04 05:18:41*
%MOMM*%
%LPD*%
G01*
G04 APERTURE LIST*
G04 #@! TA.AperFunction,Profile*
%ADD10C,0.050000*%
G04 #@! TD*
G04 #@! TA.AperFunction,Profile*
%ADD11C,0.001000*%
G04 #@! TD*
G04 #@! TA.AperFunction,Profile*
%ADD12C,0.100000*%
G04 #@! TD*
G04 APERTURE END LIST*
D10*
X1Y-3175000D02*
G75*
G02*
X3180000Y3I3179999J-5000D01*
G01*
X53980000Y-82420000D02*
X53980000Y-3180000D01*
X53980000Y-82420000D02*
G75*
G02*
X50800000Y-85600000I-3180000J0D01*
G01*
X25983300Y-85600000D02*
X50800000Y-85600000D01*
X50800000Y0D02*
G75*
G02*
X53980000Y-3180000I0J-3180000D01*
G01*
X17643300Y-81140000D02*
X17643300Y-85600000D01*
X25983300Y-81140800D02*
X25065000Y-81140000D01*
X3180000Y3D02*
X50800000Y0D01*
X25983300Y-81140800D02*
X25983300Y-85600000D01*
X17643300Y-81140000D02*
X18565000Y-81140000D01*
X17643300Y-85600000D02*
X3180000Y-85600000D01*
X3180000Y-85600000D02*
G75*
G02*
X4Y-82415002I0J3180000D01*
G01*
X0Y-82415000D02*
X1Y-3175000D01*
X18565000Y-81140000D02*
X18565000Y-82640000D01*
X18565000Y-82640000D02*
X18690000Y-82890000D01*
X18565000Y-84390000D02*
X18690000Y-84140000D01*
X18565000Y-84890000D02*
X18565000Y-84390000D01*
X18690000Y-84140000D02*
X18690000Y-82890000D01*
X18815000Y-85590000D02*
X18565000Y-84890000D01*
X18815000Y-85590000D02*
X24815000Y-85590000D01*
X24815000Y-85590000D02*
X25065000Y-84890000D01*
X24940000Y-84140000D02*
X24940000Y-82890000D01*
X25065000Y-82640000D02*
X24940000Y-82890000D01*
X25065000Y-82640000D02*
X25065000Y-81140000D01*
X25065000Y-84390000D02*
X24940000Y-84140000D01*
X25065000Y-84890000D02*
X25065000Y-84390000D01*
D11*
X27470000Y-80990000D02*
X27470000Y-78827901D01*
D12*
X31470000Y-79849299D02*
X31470000Y-80990000D01*
X31470000Y-80990000D02*
X27470000Y-80990000D01*
D10*
X27470000Y-78827901D02*
G75*
G02*
X31470000Y-79849299I4999999J11237901D01*
G01*
M02*
