M48
; DRILL file {KiCad 8.0.7} date 2025-08-04T05:18:29-0400
; FORMAT={-:-/ absolute / inch / decimal}
; #@! TF.CreationDate,2025-08-04T05:18:29-04:00
; #@! TF.GenerationSoftware,Kicad,Pcbnew,8.0.7
; #@! TF.FileFunction,Plated,1,2,PTH
FMAT,2
INCH
; #@! TA.AperFunction,Plated,PTH,ViaDrill
T1C0.0098
; #@! TA.AperFunction,Plated,PTH,ComponentDrill
T2C0.0098
; #@! TA.AperFunction,Plated,PTH,ViaDrill
T3C0.0138
%
G90
G05
T1
X0.1356Y-2.6201
X0.1396Y-2.4547
X0.1398Y-2.9783
X0.1929Y-3.1309
X0.1929Y-3.1545
X0.2303Y-2.9537
X0.2747Y-2.7205
X0.2953Y-3.1427
X0.2953Y-3.1663
X0.2958Y-3.0226
X0.3071Y-2.8534
X0.3425Y-2.5197
X0.3482Y-2.6201
X0.3996Y-2.9695
X0.4291Y-3.2638
X0.4882Y-2.9695
X0.5167Y-2.8602
X0.5834Y-2.9576
X0.6181Y-3.0472
T2
X0.2608Y-2.8839
X0.2608Y-2.938
X0.2608Y-2.9921
X0.315Y-2.8839
X0.315Y-2.938
X0.315Y-2.9921
X0.3691Y-2.8839
X0.3691Y-2.938
X0.3691Y-2.9921
T3
X0.0276Y-3.2008
X0.0402Y-2.2154
X0.0482Y-2.9567
X0.0522Y-3.0866
X0.0544Y-3.191
X0.0591Y-0.2126
X0.0591Y-0.4016
X0.0591Y-0.5906
X0.0591Y-0.7795
X0.0591Y-0.9685
X0.0591Y-1.1575
X0.0591Y-1.3465
X0.0591Y-1.5354
X0.0591Y-1.7244
X0.0591Y-1.9134
X0.0591Y-2.0079
X0.0642Y-2.124
X0.0705Y-0.1177
X0.0705Y-0.3067
X0.0705Y-0.4957
X0.0705Y-0.6846
X0.0705Y-0.8736
X0.0705Y-1.0626
X0.0705Y-1.2516
X0.0705Y-1.4406
X0.0705Y-1.6295
X0.0705Y-1.8185
X0.0898Y-2.9094
X0.0906Y-3.0827
X0.0945Y-2.747
X0.1201Y-1.9587
X0.122Y-3.1969
X0.126Y-3.2992
X0.165Y-0.2122
X0.165Y-0.4012
X0.165Y-0.5902
X0.165Y-0.7791
X0.165Y-0.9681
X0.165Y-1.1571
X0.165Y-1.3461
X0.165Y-1.535
X0.165Y-1.724
X0.165Y-1.913
X0.1831Y-3.0787
X0.2106Y-0.1614
X0.2594Y-0.1177
X0.2594Y-0.3067
X0.2594Y-0.4957
X0.2594Y-0.6846
X0.2594Y-0.8736
X0.2594Y-1.0626
X0.2594Y-1.2516
X0.2594Y-1.4406
X0.2594Y-1.6295
X0.2594Y-1.8185
X0.2594Y-2.0075
X0.2795Y-3.3031
X0.3031Y-3.2283
X0.3071Y-1.9606
X0.3539Y-0.2122
X0.3539Y-0.4012
X0.3539Y-0.5902
X0.3539Y-0.7791
X0.3539Y-0.9681
X0.3539Y-1.1571
X0.3539Y-1.3461
X0.3539Y-1.535
X0.3539Y-1.724
X0.3539Y-1.913
X0.4035Y-0.1654
X0.4124Y-3.0354
X0.4484Y-0.1177
X0.4484Y-0.3067
X0.4484Y-0.4957
X0.4484Y-0.6846
X0.4484Y-0.8736
X0.4484Y-1.0626
X0.4484Y-1.2516
X0.4484Y-1.4406
X0.4484Y-1.6295
X0.4484Y-1.8185
X0.4484Y-2.0075
X0.4803Y-3.2943
X0.4931Y-3.0463
X0.4961Y-1.9606
X0.5Y-3.1014
X0.5197Y-3.2943
X0.5429Y-0.2122
X0.5429Y-0.4012
X0.5429Y-0.5902
X0.5429Y-0.7791
X0.5429Y-0.9681
X0.5429Y-1.1571
X0.5429Y-1.3461
X0.5429Y-1.535
X0.5429Y-1.724
X0.5429Y-1.913
X0.5906Y-0.1654
X0.5937Y-2.6059
X0.6181Y-3.2126
X0.6374Y-0.1177
X0.6374Y-0.3067
X0.6374Y-0.4957
X0.6374Y-0.6846
X0.6374Y-0.8736
X0.6374Y-1.0626
X0.6374Y-1.2516
X0.6374Y-1.4406
X0.6374Y-1.6295
X0.6374Y-1.8185
X0.6374Y-2.0075
X0.6602Y-2.8508
X0.685Y-1.9606
X0.7Y-2.5594
X0.7037Y-2.9892
X0.7165Y-3.0591
X0.7319Y-0.2122
X0.7319Y-0.4012
X0.7319Y-0.5902
X0.7319Y-0.7791
X0.7319Y-0.9681
X0.7319Y-1.1571
X0.7319Y-1.3461
X0.7319Y-1.535
X0.7319Y-1.724
X0.7319Y-1.913
X0.748Y-3.0591
X0.7545Y-3.1971
X0.7787Y-2.3197
X0.7795Y-0.1634
X0.7861Y-3.1931
X0.7913Y-2.4409
X0.8232Y-2.9807
X0.8264Y-0.1177
X0.8264Y-0.3067
X0.8264Y-0.4957
X0.8264Y-0.6846
X0.8264Y-0.8736
X0.8264Y-1.0626
X0.8264Y-1.2516
X0.8264Y-1.4406
X0.8264Y-1.6295
X0.8264Y-1.8185
X0.8264Y-2.0075
X0.8274Y-3.1654
X0.8362Y-2.9157
X0.857Y-3.1654
X0.8667Y-3.2283
X0.874Y-1.9567
X0.889Y-2.3008
X0.8898Y-3.1654
X0.9161Y-3.0992
X0.9193Y-3.1654
X0.9209Y-0.2122
X0.9209Y-0.4012
X0.9209Y-0.5902
X0.9209Y-0.7791
X0.9209Y-0.9681
X0.9209Y-1.1571
X0.9209Y-1.3461
X0.9209Y-1.535
X0.9209Y-1.724
X0.9209Y-1.913
X0.9508Y-3.1654
X0.9685Y-0.1634
X1.0154Y-0.1177
X1.0154Y-0.3067
X1.0154Y-0.4957
X1.0154Y-0.6846
X1.0154Y-0.8736
X1.0154Y-1.0626
X1.0154Y-1.2516
X1.0154Y-1.4406
X1.0154Y-1.6295
X1.0154Y-1.8185
X1.0154Y-2.0075
X1.0378Y-3.148
X1.0561Y-3.1177
X1.063Y-1.9646
X1.0646Y-2.1953
X1.1098Y-0.2122
X1.1098Y-0.4012
X1.1098Y-0.5902
X1.1098Y-0.7791
X1.1098Y-0.9681
X1.1098Y-1.1571
X1.1098Y-1.3461
X1.1098Y-1.535
X1.1098Y-1.724
X1.1098Y-1.913
X1.1575Y-0.1634
X1.2043Y-0.1177
X1.2043Y-0.3067
X1.2043Y-0.4957
X1.2043Y-0.6846
X1.2043Y-0.8736
X1.2043Y-1.0626
X1.2043Y-1.2516
X1.2043Y-1.4406
X1.2043Y-1.6295
X1.2043Y-1.8185
X1.2043Y-2.0075
X1.252Y-1.9606
X1.274Y-3.2272
X1.2748Y-3.2748
X1.2988Y-0.2122
X1.2988Y-0.4012
X1.2988Y-0.5902
X1.2988Y-0.7791
X1.2988Y-0.9681
X1.2988Y-1.1571
X1.2988Y-1.3461
X1.2988Y-1.535
X1.2988Y-1.724
X1.2988Y-1.913
X1.3094Y-3.3465
X1.3465Y-0.1654
X1.3933Y-0.1177
X1.3933Y-0.3067
X1.3933Y-0.4957
X1.3933Y-0.6846
X1.3933Y-0.8736
X1.3933Y-1.0626
X1.3933Y-1.2516
X1.3933Y-1.4406
X1.3933Y-1.6295
X1.3933Y-1.8185
X1.3933Y-2.0075
X1.4409Y-1.9587
X1.4878Y-0.2122
X1.4878Y-0.4012
X1.4878Y-0.5902
X1.4878Y-0.7791
X1.4878Y-0.9681
X1.4878Y-1.1571
X1.4878Y-1.3461
X1.4878Y-1.535
X1.4878Y-1.724
X1.4878Y-1.913
X1.4898Y-2.1917
X1.5354Y-0.1634
X1.5823Y-0.1177
X1.5823Y-0.3067
X1.5823Y-0.4957
X1.5823Y-0.6846
X1.5823Y-0.8736
X1.5823Y-1.0626
X1.5823Y-1.2516
X1.5823Y-1.4406
X1.5823Y-1.6295
X1.5823Y-1.8185
X1.5823Y-2.0075
X1.6299Y-1.9587
X1.648Y-2.1925
X1.6768Y-0.2122
X1.6768Y-0.4012
X1.6768Y-0.5902
X1.6768Y-0.7791
X1.6768Y-0.9681
X1.6768Y-1.1571
X1.6768Y-1.3461
X1.6768Y-1.535
X1.6768Y-1.724
X1.6768Y-1.913
X1.7224Y-0.1634
X1.7713Y-0.1177
X1.7713Y-0.3067
X1.7713Y-0.4957
X1.7713Y-0.6846
X1.7713Y-0.8736
X1.7713Y-1.0626
X1.7713Y-1.2516
X1.7713Y-1.4406
X1.7713Y-1.6295
X1.7713Y-1.8185
X1.7713Y-2.0075
X1.7886Y-2.1925
X1.8189Y-1.9606
X1.8657Y-0.2122
X1.8657Y-0.4012
X1.8657Y-0.5902
X1.8657Y-0.7791
X1.8657Y-0.9681
X1.8657Y-1.1571
X1.8657Y-1.3461
X1.8657Y-1.535
X1.8657Y-1.724
X1.8657Y-1.913
X1.9114Y-0.1654
X1.9374Y-2.1874
X1.9602Y-0.1177
X1.9602Y-0.3067
X1.9602Y-0.4957
X1.9602Y-0.6846
X1.9602Y-0.8736
X1.9602Y-1.0626
X1.9602Y-1.2516
X1.9602Y-1.4406
X1.9602Y-1.6295
X1.9602Y-1.8185
X1.9602Y-2.0075
X2.0039Y-1.9606
X2.0547Y-0.2122
X2.0547Y-0.4012
X2.0547Y-0.5902
X2.0547Y-0.7791
X2.0547Y-0.9681
X2.0547Y-1.1571
X2.0547Y-1.3461
X2.0547Y-1.535
X2.0547Y-1.724
X2.0547Y-1.913
X2.0583Y-2.1059
X2.0669Y-0.3071
X2.0669Y-0.4961
X2.0669Y-0.685
X2.0669Y-0.874
X2.0669Y-1.063
X2.0669Y-1.252
X2.0669Y-1.4409
X2.0669Y-1.6299
X2.0669Y-1.8189
X2.0669Y-2.0079
M30
